# xmcd
#
# Track frame offsets: 
#        150
#        16195
#        29303
#        46557
#        65034
#        83989
#        103915
#        125946
#        144207
#        167701
#        186765
#        208655
#        226209
#
# Disc length: 3248 seconds
#
# Revision: 0
# Processed by: cddbd v1.5.2PL0 Copyright (c) Steve Scherf et al.
# Submitted via: ExactAudioCopyFreeDBPlugin 1.0
#
DISCID=ae0cae0d
DTITLE=Noemi - Rosso Live [CD 1)
DYEAR=2012
DGENRE=Pop
TTITLE0=Se non è amore (studio recording)
TTITLE1=Buongiorno alla vita (studio recording)
TTITLE2=Poi inventi il mondo
TTITLE3=Up
TTITLE4=Fortunatamente
TTITLE5=Non so amare che te
TTITLE6=Briciole
TTITLE7=Musa
TTITLE8=Odio tutti i cantanti
TTITLE9=Sono solo parole
TTITLE10=La cura
TTITLE11=L'amore si odia
TTITLE12=Tutto questo scorre
EXTD=
EXTT0=
EXTT1=
EXTT2=
EXTT3=
EXTT4=
EXTT5=
EXTT6=
EXTT7=
EXTT8=
EXTT9=
EXTT10=
EXTT11=
EXTT12=
PLAYORDER=
